<svg width="242" height="31" viewBox="0 0 242 31" fill="none" xmlns="http://www.w3.org/2000/svg">
<path d="M0.28125 29.5V0.90625H4.92969V25.3398H15.3203V29.5H0.28125ZM42.1367 15.2617C42.1367 13.8164 41.8698 12.4427 41.3359 11.1406C40.8151 9.83854 40.0599 8.67969 39.0703 7.66406C38.1068 6.66146 36.987 5.89323 35.7109 5.35938C34.4479 4.8125 33.1133 4.53906 31.707 4.53906C30.3008 4.53906 28.9596 4.80599 27.6836 5.33984C26.4206 5.8737 25.2943 6.64844 24.3047 7.66406C23.3151 8.66667 22.5599 9.81901 22.0391 11.1211C21.5182 12.4232 21.2578 13.8034 21.2578 15.2617C21.2578 16.707 21.5182 18.0742 22.0391 19.3633C22.5599 20.6523 23.3151 21.8047 24.3047 22.8203C25.2943 23.8359 26.4206 24.6107 27.6836 25.1445C28.9466 25.6784 30.2878 25.9453 31.707 25.9453C33.1003 25.9453 34.4219 25.6784 35.6719 25.1445C36.9349 24.6107 38.0677 23.8359 39.0703 22.8203C40.0599 21.8047 40.8151 20.6523 41.3359 19.3633C41.8698 18.0612 42.1367 16.694 42.1367 15.2617ZM46.9805 15.2617C46.9805 17.293 46.5964 19.2135 45.8281 21.0234C45.0729 22.8333 43.9661 24.4479 42.5078 25.8672C41.0365 27.2865 39.3763 28.3737 37.5273 29.1289C35.6784 29.8841 33.7383 30.2617 31.707 30.2617C29.6497 30.2617 27.6836 29.8841 25.8086 29.1289C23.9466 28.3607 22.2995 27.2734 20.8672 25.8672C19.4089 24.4479 18.3021 22.8398 17.5469 21.043C16.7917 19.2461 16.4141 17.319 16.4141 15.2617C16.4141 13.2174 16.7917 11.2904 17.5469 9.48047C18.3021 7.67057 19.4089 6.04948 20.8672 4.61719C22.3255 3.19792 23.9792 2.11719 25.8281 1.375C27.6771 0.632812 29.6367 0.261719 31.707 0.261719C33.7643 0.261719 35.7109 0.632812 37.5469 1.375C39.3958 2.11719 41.0495 3.19792 42.5078 4.61719C43.9661 6.0625 45.0729 7.69661 45.8281 9.51953C46.5964 11.3294 46.9805 13.2435 46.9805 15.2617ZM68.1523 14.8516H79.4805C79.4805 15.0469 79.487 15.3203 79.5 15.6719C79.5391 16.5964 79.5586 17.2214 79.5586 17.5469C79.5586 21.5703 78.4062 24.6953 76.1016 26.9219C73.7969 29.1484 70.5482 30.2617 66.3555 30.2617C64.0117 30.2617 61.9219 29.9167 60.0859 29.2266C58.25 28.5365 56.6419 27.4948 55.2617 26.1016C53.9076 24.7214 52.8659 23.1003 52.1367 21.2383C51.4206 19.3763 51.0625 17.3841 51.0625 15.2617C51.0625 13.1003 51.4271 11.1081 52.1562 9.28516C52.8984 7.46224 53.9922 5.85417 55.4375 4.46094C56.8307 3.09375 58.4648 2.05208 60.3398 1.33594C62.2148 0.619792 64.2201 0.261719 66.3555 0.261719C68.6081 0.261719 70.6198 0.671875 72.3906 1.49219C74.1745 2.3125 75.763 3.56901 77.1562 5.26172L73.7578 7.82031C72.7943 6.70052 71.707 5.86719 70.4961 5.32031C69.2852 4.77344 67.931 4.5 66.4336 4.5C63.3346 4.5 60.8021 5.49609 58.8359 7.48828C56.8828 9.46745 55.9062 12.0456 55.9062 15.2227C55.9062 18.4518 56.8828 21.0755 58.8359 23.0938C60.8021 25.099 63.3477 26.1016 66.4727 26.1016C69.1289 26.1016 71.2188 25.4831 72.7422 24.2461C74.2656 23.0091 75.0273 21.3229 75.0273 19.1875V18.7773H68.1523V14.8516ZM108.934 15.2617C108.934 13.8164 108.667 12.4427 108.133 11.1406C107.612 9.83854 106.857 8.67969 105.867 7.66406C104.904 6.66146 103.784 5.89323 102.508 5.35938C101.245 4.8125 99.9102 4.53906 98.5039 4.53906C97.0977 4.53906 95.7565 4.80599 94.4805 5.33984C93.2174 5.8737 92.0911 6.64844 91.1016 7.66406C90.112 8.66667 89.3568 9.81901 88.8359 11.1211C88.3151 12.4232 88.0547 13.8034 88.0547 15.2617C88.0547 16.707 88.3151 18.0742 88.8359 19.3633C89.3568 20.6523 90.112 21.8047 91.1016 22.8203C92.0911 23.8359 93.2174 24.6107 94.4805 25.1445C95.7435 25.6784 97.0846 25.9453 98.5039 25.9453C99.8971 25.9453 101.219 25.6784 102.469 25.1445C103.732 24.6107 104.865 23.8359 105.867 22.8203C106.857 21.8047 107.612 20.6523 108.133 19.3633C108.667 18.0612 108.934 16.694 108.934 15.2617ZM113.777 15.2617C113.777 17.293 113.393 19.2135 112.625 21.0234C111.87 22.8333 110.763 24.4479 109.305 25.8672C107.833 27.2865 106.173 28.3737 104.324 29.1289C102.475 29.8841 100.535 30.2617 98.5039 30.2617C96.4466 30.2617 94.4805 29.8841 92.6055 29.1289C90.7435 28.3607 89.0964 27.2734 87.6641 25.8672C86.2057 24.4479 85.099 22.8398 84.3438 21.043C83.5885 19.2461 83.2109 17.319 83.2109 15.2617C83.2109 13.2174 83.5885 11.2904 84.3438 9.48047C85.099 7.67057 86.2057 6.04948 87.6641 4.61719C89.1224 3.19792 90.776 2.11719 92.625 1.375C94.474 0.632812 96.4336 0.261719 98.5039 0.261719C100.561 0.261719 102.508 0.632812 104.344 1.375C106.193 2.11719 107.846 3.19792 109.305 4.61719C110.763 6.0625 111.87 7.69661 112.625 9.51953C113.393 11.3294 113.777 13.2435 113.777 15.2617Z" fill="white"/>
<path d="M130.945 29.5V0.90625H138.738V12.0195H149.129V0.90625H156.941V29.5H149.129V17.8594H138.738V29.5H130.945ZM163.016 29.5V0.90625H180.535V7.17578H170.613V12.1367H179.969V18.2695H170.613V23.0938H180.535V29.5H163.016ZM185.711 29.5V0.90625H193.855C195.431 0.90625 196.759 0.938802 197.84 1.00391C198.934 1.06901 199.832 1.17969 200.535 1.33594C201.746 1.6224 202.827 2.11719 203.777 2.82031C204.819 3.60156 205.607 4.60417 206.141 5.82812C206.701 7 206.98 8.32812 206.98 9.8125C206.98 12.013 206.434 13.8164 205.34 15.2227C204.272 16.6289 202.69 17.5469 200.594 17.9766L208.387 29.5H199.578L193.016 18.3086V29.5H185.711ZM193.016 14.4219H194.461C196.167 14.4219 197.397 14.1419 198.152 13.582C198.921 12.957 199.305 12.0521 199.305 10.8672C199.305 9.4349 198.947 8.41927 198.23 7.82031C197.501 7.20833 196.284 6.90234 194.578 6.90234H193.016V14.4219ZM211.375 29.5V0.90625H228.895V7.17578H218.973V12.1367H228.328V18.2695H218.973V23.0938H228.895V29.5H211.375ZM233.348 26.2969C233.348 25.1771 233.719 24.2461 234.461 23.5039C235.216 22.7487 236.147 22.3711 237.254 22.3711C238.4 22.3711 239.35 22.7487 240.105 23.5039C240.848 24.2461 241.219 25.1771 241.219 26.2969C241.219 27.4297 240.848 28.3672 240.105 29.1094C239.311 29.8776 238.361 30.2617 237.254 30.2617C236.186 30.2617 235.255 29.8776 234.461 29.1094C233.719 28.3672 233.348 27.4297 233.348 26.2969Z" fill="#FCD139"/>
</svg>
