<svg width="146" height="19" viewBox="0 0 146 19" fill="none" xmlns="http://www.w3.org/2000/svg">
<path d="M0.96875 18V0.84375H3.75781V15.5039H9.99219V18H0.96875ZM26.082 9.45703C26.082 8.58984 25.9219 7.76562 25.6016 6.98438C25.2891 6.20312 24.8359 5.50781 24.2422 4.89844C23.6641 4.29688 22.9922 3.83594 22.2266 3.51562C21.4688 3.1875 20.668 3.02344 19.8242 3.02344C18.9805 3.02344 18.1758 3.18359 17.4102 3.50391C16.6523 3.82422 15.9766 4.28906 15.3828 4.89844C14.7891 5.5 14.3359 6.19141 14.0234 6.97266C13.7109 7.75391 13.5547 8.58203 13.5547 9.45703C13.5547 10.3242 13.7109 11.1445 14.0234 11.918C14.3359 12.6914 14.7891 13.3828 15.3828 13.9922C15.9766 14.6016 16.6523 15.0664 17.4102 15.3867C18.168 15.707 18.9727 15.8672 19.8242 15.8672C20.6602 15.8672 21.4531 15.707 22.2031 15.3867C22.9609 15.0664 23.6406 14.6016 24.2422 13.9922C24.8359 13.3828 25.2891 12.6914 25.6016 11.918C25.9219 11.1367 26.082 10.3164 26.082 9.45703ZM28.9883 9.45703C28.9883 10.6758 28.7578 11.8281 28.2969 12.9141C27.8438 14 27.1797 14.9688 26.3047 15.8203C25.4219 16.6719 24.4258 17.3242 23.3164 17.7773C22.207 18.2305 21.043 18.457 19.8242 18.457C18.5898 18.457 17.4102 18.2305 16.2852 17.7773C15.168 17.3164 14.1797 16.6641 13.3203 15.8203C12.4453 14.9688 11.7812 14.0039 11.3281 12.9258C10.875 11.8477 10.6484 10.6914 10.6484 9.45703C10.6484 8.23047 10.875 7.07422 11.3281 5.98828C11.7812 4.90234 12.4453 3.92969 13.3203 3.07031C14.1953 2.21875 15.1875 1.57031 16.2969 1.125C17.4062 0.679688 18.582 0.457031 19.8242 0.457031C21.0586 0.457031 22.2266 0.679688 23.3281 1.125C24.4375 1.57031 25.4297 2.21875 26.3047 3.07031C27.1797 3.9375 27.8438 4.91797 28.2969 6.01172C28.7578 7.09766 28.9883 8.24609 28.9883 9.45703ZM41.6914 9.21094H48.4883C48.4883 9.32812 48.4922 9.49219 48.5 9.70312C48.5234 10.2578 48.5352 10.6328 48.5352 10.8281C48.5352 13.2422 47.8438 15.1172 46.4609 16.4531C45.0781 17.7891 43.1289 18.457 40.6133 18.457C39.207 18.457 37.9531 18.25 36.8516 17.8359C35.75 17.4219 34.7852 16.7969 33.957 15.9609C33.1445 15.1328 32.5195 14.1602 32.082 13.043C31.6523 11.9258 31.4375 10.7305 31.4375 9.45703C31.4375 8.16016 31.6562 6.96484 32.0938 5.87109C32.5391 4.77734 33.1953 3.8125 34.0625 2.97656C34.8984 2.15625 35.8789 1.53125 37.0039 1.10156C38.1289 0.671875 39.332 0.457031 40.6133 0.457031C41.9648 0.457031 43.1719 0.703125 44.2344 1.19531C45.3047 1.6875 46.2578 2.44141 47.0938 3.45703L45.0547 4.99219C44.4766 4.32031 43.8242 3.82031 43.0977 3.49219C42.3711 3.16406 41.5586 3 40.6602 3C38.8008 3 37.2812 3.59766 36.1016 4.79297C34.9297 5.98047 34.3438 7.52734 34.3438 9.43359C34.3438 11.3711 34.9297 12.9453 36.1016 14.1562C37.2812 15.3594 38.8086 15.9609 40.6836 15.9609C42.2773 15.9609 43.5312 15.5898 44.4453 14.8477C45.3594 14.1055 45.8164 13.0938 45.8164 11.8125V11.5664H41.6914V9.21094ZM66.1602 9.45703C66.1602 8.58984 66 7.76562 65.6797 6.98438C65.3672 6.20312 64.9141 5.50781 64.3203 4.89844C63.7422 4.29688 63.0703 3.83594 62.3047 3.51562C61.5469 3.1875 60.7461 3.02344 59.9023 3.02344C59.0586 3.02344 58.2539 3.18359 57.4883 3.50391C56.7305 3.82422 56.0547 4.28906 55.4609 4.89844C54.8672 5.5 54.4141 6.19141 54.1016 6.97266C53.7891 7.75391 53.6328 8.58203 53.6328 9.45703C53.6328 10.3242 53.7891 11.1445 54.1016 11.918C54.4141 12.6914 54.8672 13.3828 55.4609 13.9922C56.0547 14.6016 56.7305 15.0664 57.4883 15.3867C58.2461 15.707 59.0508 15.8672 59.9023 15.8672C60.7383 15.8672 61.5312 15.707 62.2812 15.3867C63.0391 15.0664 63.7188 14.6016 64.3203 13.9922C64.9141 13.3828 65.3672 12.6914 65.6797 11.918C66 11.1367 66.1602 10.3164 66.1602 9.45703ZM69.0664 9.45703C69.0664 10.6758 68.8359 11.8281 68.375 12.9141C67.9219 14 67.2578 14.9688 66.3828 15.8203C65.5 16.6719 64.5039 17.3242 63.3945 17.7773C62.2852 18.2305 61.1211 18.457 59.9023 18.457C58.668 18.457 57.4883 18.2305 56.3633 17.7773C55.2461 17.3164 54.2578 16.6641 53.3984 15.8203C52.5234 14.9688 51.8594 14.0039 51.4062 12.9258C50.9531 11.8477 50.7266 10.6914 50.7266 9.45703C50.7266 8.23047 50.9531 7.07422 51.4062 5.98828C51.8594 4.90234 52.5234 3.92969 53.3984 3.07031C54.2734 2.21875 55.2656 1.57031 56.375 1.125C57.4844 0.679688 58.6602 0.457031 59.9023 0.457031C61.1367 0.457031 62.3047 0.679688 63.4062 1.125C64.5156 1.57031 65.5078 2.21875 66.3828 3.07031C67.2578 3.9375 67.9219 4.91797 68.375 6.01172C68.8359 7.09766 69.0664 8.24609 69.0664 9.45703Z" fill="white"/>
<path d="M79.3672 18V0.84375H84.043V7.51172H90.2773V0.84375H94.9648V18H90.2773V11.0156H84.043V18H79.3672ZM98.6094 18V0.84375H109.121V4.60547H103.168V7.58203H108.781V11.2617H103.168V14.1562H109.121V18H98.6094ZM112.227 18V0.84375H117.113C118.059 0.84375 118.855 0.863281 119.504 0.902344C120.16 0.941406 120.699 1.00781 121.121 1.10156C121.848 1.27344 122.496 1.57031 123.066 1.99219C123.691 2.46094 124.164 3.0625 124.484 3.79688C124.82 4.5 124.988 5.29688 124.988 6.1875C124.988 7.50781 124.66 8.58984 124.004 9.43359C123.363 10.2773 122.414 10.8281 121.156 11.0859L125.832 18H120.547L116.609 11.2852V18H112.227ZM116.609 8.95312H117.477C118.5 8.95312 119.238 8.78516 119.691 8.44922C120.152 8.07422 120.383 7.53125 120.383 6.82031C120.383 5.96094 120.168 5.35156 119.738 4.99219C119.301 4.625 118.57 4.44141 117.547 4.44141H116.609V8.95312ZM127.625 18V0.84375H138.137V4.60547H132.184V7.58203H137.797V11.2617H132.184V14.1562H138.137V18H127.625ZM140.809 16.0781C140.809 15.4062 141.031 14.8477 141.477 14.4023C141.93 13.9492 142.488 13.7227 143.152 13.7227C143.84 13.7227 144.41 13.9492 144.863 14.4023C145.309 14.8477 145.531 15.4062 145.531 16.0781C145.531 16.7578 145.309 17.3203 144.863 17.7656C144.387 18.2266 143.816 18.457 143.152 18.457C142.512 18.457 141.953 18.2266 141.477 17.7656C141.031 17.3203 140.809 16.7578 140.809 16.0781Z" fill="#FCD139"/>
</svg>
