<svg width="78" height="78" viewBox="0 0 78 78" fill="none" xmlns="http://www.w3.org/2000/svg">
<path d="M72.5 27.5H50V12.5H72.5V27.5Z" fill="#FCD139"/>
<path d="M72.5 42.5H50V31.25H72.5V42.5Z" fill="#FCD139"/>
<path d="M45 27.5H5V42.5H45V27.5Z" fill="#FCD139"/>
<path d="M22.5 57.5H5V45H22.5V57.5Z" fill="#FCD139"/>
<path d="M42.5 57.5H25V45H42.5V57.5Z" fill="#FCD139"/>
<path d="M71.25 0H51.25C47.8038 0 45 2.80375 45 6.25V22.5H6.25C2.80375 22.5 0 25.3038 0 28.75V63.75C0 67.1962 2.80375 70 6.25 70H22.5V75H17.5V77.5H50V75H45V70H61.25C64.6962 70 67.5 67.1962 67.5 63.75V57.5H71.25C74.6962 57.5 77.5 54.6962 77.5 51.25V6.25C77.5 2.80375 74.6962 0 71.25 0ZM51.25 2.5H71.25C73.3175 2.5 75 4.1825 75 6.25V7.5H47.5V6.25C47.5 4.1825 49.1825 2.5 51.25 2.5ZM75 10V45H47.5V10H75ZM42.5 75H25V70H42.5V75ZM61.25 67.5H6.25C4.1825 67.5 2.5 65.8175 2.5 63.75V62.5H65V63.75C65 65.8175 63.3175 67.5 61.25 67.5ZM65 60H2.5V28.75C2.5 26.6825 4.1825 25 6.25 25H45V51.25C45 54.6962 47.8038 57.5 51.25 57.5H65V60ZM71.25 55H51.25C49.1825 55 47.5 53.3175 47.5 51.25V47.5H75V51.25C75 53.3175 73.3175 55 71.25 55Z" fill="white"/>
<path d="M65 50H57.5V52.5H65V50Z" fill="white"/>
<path d="M72.5 40H70V42.5H72.5V40Z" fill="#2F373B"/>
<path d="M67.5 40H50V42.5H67.5V40Z" fill="#2F373B"/>
<path d="M72.5 35H50V37.5H72.5V35Z" fill="#2F373B"/>
<path d="M72.5 30H50V32.5H72.5V30Z" fill="#2F373B"/>
<path d="M42.5 45H25V47.5H42.5V45Z" fill="#2F373B"/>
<path d="M42.5 50H25V52.5H42.5V50Z" fill="#2F373B"/>
<path d="M37.5 55H25V57.5H37.5V55Z" fill="#2F373B"/>
<path d="M42.5 55H40V57.5H42.5V55Z" fill="#2F373B"/>
</svg>
